<?xml version="1.0" encoding="utf-8"?>
<!-- Generator: Adobe Illustrator 22.1.0, SVG Export Plug-In . SVG Version: 6.00 Build 0)  -->
<svg version="1.1" id="Layer_1" xmlns="http://www.w3.org/2000/svg" xmlns:xlink="http://www.w3.org/1999/xlink" x="0px" y="0px"
	 viewBox="0 0 512 512" style="enable-background:new 0 0 512 512;" xml:space="preserve">
<style type="text/css">
	.st0{fill:#A8D32A;}
	.st1{fill:#93BF00;}
	.st2{fill:#684D34;}
	.st3{fill:#7E5D40;}
</style>
<path class="st0" d="M282.9,211.3c-3.9,4.1-9.3,6.2-14.9,5.9c-1.9-0.1-48.1-3.3-95.4-28.8C128,164.4,74.1,115.6,71,19.6
	c-0.2-5.2,1.8-10.3,5.5-14C82.1,0,88.8,0,91.6,0c0,0,0,0,0,0c2,0,49,0.3,97.5,29.4c25.2,15.1,46.1,35.1,62.2,59.6
	c19.4,29.6,31.8,65.6,36.7,107.1C288.6,201.7,286.8,207.3,282.9,211.3z"/>
<path class="st1" d="M251.9,90c-7.9,14.7-14.6,31.2-19.4,49.7c-4.3,12.9-10.9,35.6-16.4,66.9c28.7,9,50.6,10.5,51.9,10.6
	c5.6,0.3,11.1-1.8,14.9-5.9c3.9-4.1,5.7-9.7,5.1-15.2C283.1,155,271,119.4,251.9,90z"/>
<path class="st1" d="M266.7,178.9l-40.8-39.8l-10.8-53.6c-0.9-4.2-5-7-9.2-6.1c-4.2,0.9-7,5-6.1,9.2l6.2,31.1l-22.5-21.9l-10.9-54.3
	c-0.9-4.2-5-7-9.2-6.1c-4.2,0.9-7,5-6.1,9.2l6.4,31.9l-52.5-51.2c-3.1-3-8.1-3-11.1,0.1c-3,3.1-3,8.1,0.1,11.1l57.7,56.3L117.6,94
	c-4.3-0.1-7.9,3.4-8,7.7c-0.1,4.3,3.4,7.9,7.7,8l56.9,1l26.8,26.1l-40.9-0.7c-4.3-0.1-7.9,3.4-8,7.7c-0.1,4.3,3.4,7.9,7.7,8l57.5,1
	l38.3,37.4c1.5,1.5,3.5,2.2,5.5,2.2c2,0,4.1-0.8,5.6-2.4C269.8,186.8,269.8,181.9,266.7,178.9z"/>
<path class="st0" d="M467.8,5.9c-3.9-4.1-9.3-6.2-14.9-5.9c-1.9,0.1-48.1,3.3-95.4,28.8c-36.3,19.6-78.7,55.5-95,119.8
	c-8.9,26.2-28.4,97.1-23.9,203.9c0.4,9.2,8,16.5,17.2,16.5c0.2,0,0.5,0,0.7,0c9.5-0.4,16.9-8.4,16.4-17.9
	c-2.4-55.3,2.2-100.6,8.1-133.9c13.2-0.8,52.6-5,92.9-29.2c25.2-15.1,46.1-35.1,62.2-59.6c19.4-29.6,31.8-65.6,36.7-107.1
	C473.5,15.6,471.7,10,467.8,5.9z"/>
<path class="st1" d="M443.1,27.3c-3-3.1-8-3.2-11.1-0.1l-52.5,51.2l6.4-31.9c0.9-4.2-1.9-8.4-6.1-9.2c-4.2-0.8-8.4,1.9-9.2,6.1
	l-10.9,54.3l-22.5,21.9l6.2-31.1c0.9-4.2-1.9-8.4-6.1-9.2c-4.2-0.8-8.4,1.9-9.2,6.1l-10.8,53.6l-40.8,39.8c-3.1,3-3.2,8-0.1,11.1
	c1.5,1.6,3.6,2.4,5.6,2.4c2,0,4-0.7,5.5-2.2l38.3-37.4l57.5-1c4.3-0.1,7.8-3.6,7.7-8c-0.1-4.3-3.6-7.7-7.8-7.7c0,0-0.1,0-0.1,0
	l-40.9,0.7l26.8-26.1l56.9-1c4.3-0.1,7.8-3.6,7.7-8c-0.1-4.3-3.6-7.7-7.8-7.7c0,0-0.1,0-0.1,0l-40.3,0.7L443,38.4
	C446.1,35.4,446.2,30.4,443.1,27.3z"/>
<path class="st2" d="M449.2,410.1c-7.9,0-15.3,2.2-21.6,6.1c-9.3-30.3-37.5-52.4-70.9-52.4c-3.7,0-7.3,0.3-10.9,0.8
	c-15.1-34.6-49.7-58.8-89.8-58.8s-74.7,24.2-89.8,58.8c-3.6-0.5-7.2-0.8-10.9-0.8c-33.4,0-61.6,22.1-70.9,52.4
	c-6.3-3.9-13.7-6.1-21.6-6.1c-22.8,0-41.3,18.5-41.3,41.3s18.5,41.3,41.3,41.3c12.2,0,23.2-5.3,30.7-13.7
	c13.3,19.9,36,33.1,61.7,33.1c20.9,0,39.7-8.6,53.1-22.5c14.1,7.8,30.3,12.3,47.6,12.3c17.3,0,33.5-4.5,47.6-12.3
	c13.5,13.9,32.3,22.5,53.1,22.5c25.7,0,48.4-13.1,61.7-33.1c7.6,8.4,18.5,13.7,30.7,13.7c22.8,0,41.3-18.5,41.3-41.3
	C490.5,428.6,472,410.1,449.2,410.1z"/>
<g>
	<path class="st3" d="M309.9,345.9c9.7,0,19.2,1.4,28,4.1c-17.5-26.6-47.7-44.2-81.9-44.2c-40.2,0-74.7,24.2-89.8,58.8
		c-3.6-0.5-7.2-0.8-10.9-0.8c-33.4,0-61.6,22.1-70.9,52.4c-6.3-3.9-13.7-6.1-21.6-6.1c-22.8,0-41.3,18.5-41.3,41.3
		c0,22.8,18.5,41.3,41.3,41.3c12.2,0,23.2-5.3,30.7-13.7c13.3,19.9,36,33.1,61.7,33.1c20.9,0,39.7-8.6,53.1-22.5
		c6.1,3.4,12.7,6.2,19.6,8.3c-10.2-15.5-16.1-33.9-16.1-53.8C211.9,389.8,255.7,345.9,309.9,345.9z"/>
	<circle class="st3" cx="295" cy="421" r="17.8"/>
	<circle class="st3" cx="366.6" cy="462.9" r="17.8"/>
	<circle class="st3" cx="355.7" cy="402.1" r="6.8"/>
	<circle class="st3" cx="256" cy="469.7" r="6.8"/>
	<circle class="st3" cx="277.2" cy="376.5" r="6.8"/>
	<circle class="st3" cx="424.4" cy="438.8" r="6.8"/>
</g>
<g>
	<circle class="st3" cx="384.4" cy="317.2" r="17.8"/>
	<circle class="st3" cx="424.4" cy="357" r="6.8"/>
	<circle class="st3" cx="424.4" cy="324.1" r="6.8"/>
</g>
<g>
	<circle class="st3" cx="112.5" cy="310.9" r="17.8"/>
	<circle class="st3" cx="83" cy="350.1" r="6.8"/>
</g>
</svg>
