<svg id="Capa_1" data-name="Capa 1" xmlns="http://www.w3.org/2000/svg" viewBox="0 0 52 52"><defs><style>.cls-1{fill:#fff;}</style></defs><title>mail-icon</title><path class="cls-1" d="M26,17.8a4.88,4.88,0,0,1,4.9,4.9A4.87,4.87,0,0,1,26,27.6a4.85,4.85,0,0,1-4.9-4.9,4.71,4.71,0,0,1,1.42-3.47A4.75,4.75,0,0,1,26,17.8Zm12.2,5a11.78,11.78,0,0,0-.95-4.7,12.17,12.17,0,0,0-2.6-3.85,12.57,12.57,0,0,0-3.85-2.62,11.47,11.47,0,0,0-4.7-1H26a11.47,11.47,0,0,0-4.7,1,12.57,12.57,0,0,0-3.85,2.62,12.17,12.17,0,0,0-2.6,3.85,11.78,11.78,0,0,0-1,4.7v.35a.21.21,0,0,0,.05.15,9.94,9.94,0,0,0,.25,2.15,8.13,8.13,0,0,0,.7,2c.4.87.88,1.82,1.45,2.85s1.18,2.11,1.83,3.22,1.27,2.15,1.87,3.1,1.13,1.77,1.6,2.45a11,11,0,0,0,1,1.33c.27.27.58.55.93.85s.69.57,1,.8a6.84,6.84,0,0,0,.9.55,1.67,1.67,0,0,0,.55.2,1.48,1.48,0,0,0,.53-.2,9.75,9.75,0,0,0,.87-.53,9.17,9.17,0,0,0,1-.77c.35-.3.67-.6,1-.9a11,11,0,0,0,1-1.33c.47-.68,1-1.5,1.6-2.47s1.23-2,1.87-3.1,1.26-2.18,1.83-3.23,1-2,1.42-2.85a10,10,0,0,0,.73-2c.07-.37.12-.73.15-1.07s.07-.71.1-1.08v-.15a.28.28,0,0,1,0-.15.49.49,0,0,0,0-.15V22.8ZM26,1a24.29,24.29,0,0,1,9.73,2A25,25,0,0,1,49,16.27,25,25,0,0,1,50.1,32.65a25.11,25.11,0,0,1-2.53,6,25,25,0,0,1-9,9,24.94,24.94,0,0,1-6,2.53,25,25,0,0,1-13.3,0,25.11,25.11,0,0,1-6-2.53,24.25,24.25,0,0,1-5.05-3.9,24.51,24.51,0,0,1-3.9-5.05,25.11,25.11,0,0,1-2.53-6,25,25,0,0,1,0-13.3,25.32,25.32,0,0,1,2.52-6A24.91,24.91,0,0,1,8.33,8.33a24.45,24.45,0,0,1,5-3.9,25.18,25.18,0,0,1,6-2.53A24.43,24.43,0,0,1,26,1Z"/></svg>