<?xml version="1.0" encoding="utf-8"?>
<!-- Generator: Adobe Illustrator 22.1.0, SVG Export Plug-In . SVG Version: 6.00 Build 0)  -->
<svg version="1.1" id="Capa_1" xmlns="http://www.w3.org/2000/svg" xmlns:xlink="http://www.w3.org/1999/xlink" x="0px" y="0px"
	 viewBox="0 0 295 244.9" style="enable-background:new 0 0 295 244.9;" xml:space="preserve">
<style type="text/css">
	.st0{fill:#FFFFFF;}
</style>
<title>logo</title>
<g>
	<g>
		<path class="st0" d="M214.5,157.2c-40.1,0-72.8-32.7-72.8-72.8v-7.8c0-33.7-27.4-61.1-61.1-61.1S19.4,42.9,19.4,76.6
			c0,3.2-2.6,5.8-5.8,5.8s-5.8-2.6-5.8-5.8c0-40.1,32.7-72.8,72.8-72.8s72.8,32.7,72.8,72.8v7.8c0,33.7,27.4,61.1,61.1,61.1
			s61.1-27.4,61.1-61.1c0-3.2,2.6-5.9,5.8-5.9s5.8,2.6,5.8,5.8C287.3,124.5,254.6,157.2,214.5,157.2z"/>
	</g>
	<g>
		<rect x="191.2" y="28.1" class="st0" width="13.6" height="21.4"/>
	</g>
	<g>
		<rect x="220.3" y="28.1" class="st0" width="13.6" height="21.4"/>
	</g>
</g>
<g>
	<path class="st0" d="M22.4,208.8c-1,0-1.5-0.5-1.7-1.6l-0.5-3.7c-0.2-1.2-0.2-2.5-0.2-3.7c0-0.3,0-0.9,0.1-1.6
		c0.1-0.8,0.1-1.3,0.1-1.6c0-2.4-0.5-3.7-1.4-3.7c-1.3,0-2.5,0.7-3.6,2.2c-1.1,1.6-2,3.3-2.4,5.2c0,0.4-0.1,1-0.2,1.7
		c-0.1,0.5-0.1,1.1-0.1,1.6c0,0.3,0,0.8,0.1,1.5c0.1,0.7,0.1,1.2,0.1,1.5c0,0.5-0.1,0.9-0.5,1.2c-0.3,0.3-0.7,0.5-1.2,0.5
		c-0.5,0-0.9-0.2-1.2-0.5c-0.3-0.3-0.5-0.8-0.5-1.2c0-0.3,0-0.8-0.1-1.5c-0.1-0.5-0.1-1-0.1-1.5c0-1.2,0.1-2.8,0.2-4.8
		s0.2-3.7,0.2-4.8c0-0.4,0-0.9-0.1-1.6s-0.1-1.2-0.1-1.6c0-0.4,0.2-0.9,0.5-1.2c0.3-0.3,0.8-0.5,1.2-0.5c1,0,1.6,0.7,1.7,2.2l0.1,2
		c1.9-2.5,3.9-3.8,5.9-3.8c1.6-0.1,3.2,0.9,3.8,2.4c0.6,1.5,0.8,3.1,0.8,4.7v1.7v1.6c0,1.2,0.1,2.4,0.4,3.6c0.2,1.2,0.3,2.4,0.4,3.6
		c0,0.5-0.2,0.9-0.5,1.2C23.3,208.7,22.9,208.9,22.4,208.8z"/>
	<path class="st0" d="M37.4,199.9c0,0.7,0,1.7,0.1,3s0.1,2.4,0.1,3c0,0.5-0.1,0.9-0.5,1.2c-0.3,0.3-0.8,0.5-1.2,0.5
		c-0.4,0-0.9-0.2-1.2-0.5c-0.3-0.3-0.5-0.8-0.5-1.2c0-0.7,0-1.7-0.1-3c-0.1-1.4-0.1-2.4-0.1-3c0-1.1,0.1-2.4,0.2-4
		c0.1-1.6,0.2-2.9,0.2-4c0-0.5,0.1-0.9,0.5-1.2c0.3-0.3,0.7-0.5,1.2-0.5c0.4,0,0.9,0.2,1.2,0.5c0.3,0.3,0.5,0.8,0.5,1.2
		c0,1.1-0.1,2.4-0.2,4C37.5,197.5,37.4,198.9,37.4,199.9z M36.6,186.2c-0.5,0-1.1-0.2-1.4-0.6c-0.4-0.4-0.6-0.9-0.6-1.4
		c0-0.5,0.2-1,0.6-1.4c0.4-0.4,0.9-0.6,1.4-0.6c0.5,0,1,0.2,1.4,0.6c0.4,0.4,0.6,0.9,0.6,1.4c0,0.5-0.2,1-0.6,1.4
		C37.6,186,37.1,186.2,36.6,186.2L36.6,186.2z"/>
	<path class="st0" d="M61.9,208.8c-1,0-1.5-0.5-1.6-1.6l-0.5-3.7c-0.2-1.2-0.2-2.5-0.2-3.7c0-0.3,0-0.9,0.1-1.6
		c0.1-0.8,0.1-1.3,0.1-1.6c0-2.4-0.5-3.7-1.4-3.7c-1.3,0-2.5,0.7-3.6,2.2c-1.1,1.6-2,3.3-2.4,5.2c0,0.4-0.1,1-0.2,1.7
		c-0.1,0.5-0.1,1.1-0.1,1.6c0,0.3,0,0.8,0.1,1.5s0.1,1.2,0.1,1.5c0,0.5-0.1,0.9-0.5,1.2c-0.3,0.3-0.7,0.5-1.2,0.5
		c-0.5,0-0.9-0.2-1.2-0.5c-0.3-0.3-0.5-0.8-0.5-1.2c0-0.3,0-0.8-0.1-1.5c-0.1-0.5-0.1-1-0.1-1.5c0-1.2,0.1-2.8,0.2-4.8
		c0.2-2.1,0.2-3.7,0.2-4.8c0-0.4,0-0.9-0.1-1.6c-0.1-0.7-0.1-1.2-0.1-1.6c0-0.4,0.2-0.9,0.5-1.2c0.3-0.3,0.8-0.5,1.2-0.5
		c1,0,1.6,0.7,1.7,2.2l0,2c1.9-2.5,3.9-3.8,5.9-3.8c1.6-0.1,3.2,0.9,3.8,2.4c0.6,1.5,0.8,3.1,0.8,4.7v1.7v1.6c0,1.2,0.1,2.4,0.4,3.6
		c0.2,1.2,0.3,2.4,0.4,3.6c0,0.5-0.2,0.9-0.5,1.2C62.8,208.7,62.4,208.9,61.9,208.8z M53.9,181.3c1,0,2,0.3,2.7,1L58,184
		c0.4,0.6,1.2,1,1.9,1c0.6,0,1.1-0.2,1.4-0.6l0.7-1.5l0.3-1c0.2-0.4,0.6-0.6,1-0.5c0.6-0.1,1.2,0.3,1.3,0.9c0,0.1,0,0.2,0,0.3
		c-0.1,0.7-0.4,1.4-0.7,2.1c-0.3,0.7-0.7,1.3-1.2,1.9c-0.6,0.6-1.5,1-2.4,1c-1.2,0.1-2.5-0.3-3.5-1c-0.6-0.5-1.1-1.2-1.5-1.8
		c-0.3-0.6-0.9-0.9-1.6-1c-0.3,0-0.6,0.1-0.9,0.2c-0.3,0.1-0.5,0.3-0.7,0.6l-0.7,1.4c-0.2,0.4-0.6,0.7-1.1,0.7
		c-0.3,0-0.7-0.1-0.9-0.3c-0.3-0.2-0.4-0.5-0.4-0.9c0-0.1,0-0.3,0.1-0.4c0.3-1.1,0.9-2.1,1.7-2.8C51.6,181.6,52.7,181.2,53.9,181.3z
		"/>
	<path class="st0" d="M79.2,208.6c-1.9,0-3.6-0.7-4.9-2.1c-1.6-1.7-2.4-4-2.4-6.3c-0.1-2.4,0.6-4.8,1.9-6.8c1.5-2.2,4-3.5,6.6-3.4
		c2.2-0.1,4.2,1.2,5.1,3.1c1,1.9,1.4,3.9,1.3,6c0,2.3-0.7,4.5-2,6.4C83.7,207.6,81.5,208.7,79.2,208.6z M80.2,193.5
		c-1.6,0-3.2,0.9-3.9,2.4c-0.8,1.3-1.1,2.8-1.1,4.4c-0.1,1.4,0.4,2.8,1.3,3.8c0.7,0.7,1.6,1.1,2.6,1.1c1.1,0,2.3-0.5,3-1.3
		c1-1,1.5-2.4,1.5-3.9C83.9,195.7,82.8,193.5,80.2,193.5L80.2,193.5z"/>
	<path class="st0" d="M127.8,192.5l-5.9,12.7c-1.4,3.1-2.6,5.7-3.3,7.8l-1.1,3.3c-0.2,0.7-0.8,1.2-1.5,1.2c-0.5,0-0.9-0.2-1.2-0.5
		c-0.3-0.3-0.5-0.7-0.5-1.2c0-1.1,1.2-4.4,3.7-9.8l-6.1-11.7l-0.7-1.2c-0.3-0.4-0.4-0.8-0.5-1.3c0-0.5,0.2-0.9,0.5-1.2
		c0.3-0.3,0.7-0.5,1.2-0.5c0.5,0,0.9,0.2,1.2,0.6c2.4,3.6,4.5,7.4,6.2,11.4l2.5-5.9c0.9-2,1.8-3.8,2.6-5.2c0.3-0.6,0.8-0.9,1.4-1
		c0.5,0,0.9,0.2,1.2,0.5c0.3,0.3,0.5,0.7,0.5,1.2C128,192,128,192.2,127.8,192.5z"/>
	<path class="st0" d="M160.7,208.7c-2.1,0.1-4.2-0.7-5.8-2.1c-1.6-1.5-2.5-3.6-2.4-5.8c0.1-2.5,0.9-5,2.3-7.1
		c1.7-2.7,3.6-4.1,5.7-4.1c1.3,0,2.5,0.3,3.7,0.7c1.7,0.7,2.6,1.5,2.6,2.4c0,0.4-0.1,0.8-0.4,1.1c-0.3,0.3-0.6,0.5-1,0.5
		c-0.3,0-0.6-0.1-0.9-0.3l-0.7-0.6c-1-0.6-2.1-0.9-3.3-0.8c-1.2,0-2.3,1-3.4,3.1c-0.9,1.5-1.4,3.2-1.5,4.9c-0.1,1.3,0.5,2.7,1.5,3.5
		c1,0.8,2.3,1.3,3.7,1.2c0.8,0,1.5-0.2,2.2-0.5l2-1c0.2-0.1,0.5-0.2,0.7-0.3c0.4,0,0.8,0.2,1.1,0.5c0.3,0.3,0.5,0.7,0.5,1.1
		c0,0.8-0.9,1.6-2.6,2.4C163.3,208.3,162,208.6,160.7,208.7z"/>
	<path class="st0" d="M190.2,208.7c-0.2,0-0.6-0.2-1.2-0.7c-0.4-0.4-0.8-0.8-1.1-1.2c-0.9,0.5-1.9,1-2.9,1.3
		c-0.7,0.3-1.4,0.4-2.1,0.5c-2.6,0-4.6-0.7-5.8-2.2s-1.7-3.6-1.7-6.4c0-2.6,1-5.2,2.8-7c1.7-1.9,4.2-2.9,6.7-2.9
		c1.1,0,2.3,0.3,3.3,0.7c1.5,0.6,2.3,1.4,2.3,2.3c0,0.3-0.1,0.6-0.3,0.8c-0.1,0.7-0.2,1.4-0.3,2.1c-0.1,1-0.1,2.2-0.1,3.8
		c0,1.1,0.1,2.2,0.3,3.3c0.3,1,0.6,2,1.1,3c0.1,0.2,0.2,0.5,0.4,0.9l0.1,0.3c0,0.4-0.2,0.8-0.5,1.1
		C191,208.6,190.6,208.7,190.2,208.7z M186.6,197c0-0.5,0-1.1,0.1-1.6c0.1-0.6,0.2-1.2,0.3-1.8c-0.3-0.2-0.7-0.3-1.1-0.5
		c-0.2-0.1-0.5-0.1-0.7-0.2c-1.8,0-3.4,0.8-4.5,2.1c-1.2,1.3-1.9,3.1-1.9,4.9c-0.1,1.5,0.2,2.9,1,4.2c0.7,0.9,1.8,1.5,3,1.4
		c1,0,1.9-0.2,2.8-0.6c0.6-0.4,1.2-0.8,1.7-1.3C186.9,201.5,186.7,199.2,186.6,197z M184.2,187.5c-0.4,0-0.8-0.2-1.1-0.5
		c-0.3-0.3-0.5-0.7-0.5-1.1c0-0.4,0.2-0.8,0.5-1.1c0.8-0.9,1.5-1.8,2.2-2.7c0.7-0.9,1.5-1.7,2.5-2.4c0.3-0.2,0.6-0.3,0.9-0.3
		c0.4,0,0.8,0.2,1.1,0.5c0.3,0.3,0.5,0.7,0.5,1.1c0,0.5-0.2,0.9-0.6,1.2c-0.9,0.7-1.6,1.5-2.3,2.5c-0.6,0.9-1.4,1.7-2.2,2.5
		C184.9,187.3,184.6,187.5,184.2,187.5z"/>
	<path class="st0" d="M213.2,208.8c-1,0-1.5-0.5-1.6-1.6l-0.5-3.7c-0.2-1.2-0.2-2.5-0.2-3.7c0-0.3,0-0.9,0.1-1.6
		c0.1-0.8,0.1-1.3,0.1-1.6c0-2.4-0.5-3.7-1.4-3.7c-1.3,0-2.5,0.7-3.6,2.2c-1.1,1.6-2,3.3-2.4,5.2c0,0.4-0.1,1-0.1,1.7
		c-0.1,0.5-0.1,1.1-0.1,1.6c0,0.5,0,1,0.1,1.5c0.1,0.7,0.1,1.2,0.1,1.5c0,0.5-0.1,0.9-0.5,1.2c-0.3,0.3-0.7,0.5-1.2,0.5
		c-0.5,0-0.9-0.2-1.2-0.5c-0.3-0.3-0.5-0.8-0.5-1.2c0-0.3,0-0.8-0.1-1.5s-0.1-1.2-0.1-1.5c0-1.2,0.1-2.8,0.2-4.8
		c0.2-2.1,0.2-3.7,0.2-4.8c0-0.4,0-0.9-0.1-1.6s0-1.2,0-1.6c0-0.4,0.2-0.9,0.5-1.2c0.3-0.3,0.8-0.5,1.2-0.5c1,0,1.6,0.7,1.7,2.2
		l0.1,2c1.9-2.5,3.9-3.8,5.9-3.8c1.6-0.1,3.2,0.9,3.8,2.4c0.6,1.5,0.8,3.1,0.8,4.7v1.7v1.6c0,1.2,0.2,2.4,0.4,3.6
		c0.2,1.2,0.3,2.4,0.4,3.6c0,0.5-0.2,0.9-0.5,1.2C214.1,208.7,213.7,208.9,213.2,208.8z"/>
	<path class="st0" d="M231.8,208.7c-2.1,0.1-4.2-0.7-5.8-2.1c-1.6-1.5-2.5-3.6-2.4-5.8c0.1-2.5,0.9-5,2.3-7.1
		c1.7-2.7,3.6-4.1,5.7-4.1c1.3,0,2.5,0.3,3.7,0.7c1.7,0.7,2.6,1.5,2.6,2.4c0,0.4-0.1,0.8-0.4,1.1c-0.3,0.3-0.6,0.5-1,0.5
		c-0.3,0-0.6-0.1-0.9-0.3l-0.7-0.6c-1-0.6-2.1-0.9-3.3-0.8c-1.2,0-2.3,1-3.4,3.1c-0.9,1.5-1.4,3.2-1.5,4.9c-0.1,1.4,0.5,2.7,1.5,3.5
		c1,0.8,2.3,1.3,3.7,1.2c0.8,0,1.5-0.2,2.2-0.5l2-1c0.2-0.1,0.5-0.2,0.7-0.3c0.4,0,0.8,0.2,1.1,0.5c0.3,0.3,0.5,0.7,0.5,1.1
		c0,0.8-0.9,1.6-2.6,2.4C234.5,208.3,233.2,208.6,231.8,208.7z"/>
	<path class="st0" d="M255.7,208.4c-2.2,0.1-4.4-0.6-6.2-1.9c-1.8-1.5-2.7-3.7-2.6-6c-0.1-2.6,0.7-5.2,2.1-7.4
		c1.4-2.1,3.7-3.3,6.2-3.3c1.6-0.1,3.2,0.3,4.6,1c1.4,0.7,2.2,2.1,2.2,3.6c0,1.1-0.6,2.2-1.9,3.1c-1.1,0.7-2.3,1.4-3.6,1.9l-6.5,3.1
		c0.6,0.9,1.4,1.6,2.4,2.1c1,0.5,2.2,0.8,3.3,0.7c0.9,0,1.9-0.2,2.8-0.4c1.3-0.4,2.2-0.9,2.6-1.5c0.3-0.6,0.8-0.9,1.2-0.9
		c0.4,0,0.8,0.2,1.1,0.4c0.3,0.3,0.5,0.7,0.5,1c0,1.3-1,2.3-3,3.2C259.2,208,257.4,208.4,255.7,208.4z M255.2,193
		c-1.3,0-2.6,0.6-3.4,1.6c-1.1,1.4-1.8,3.1-2.1,4.8l5.2-2.5c1.6-0.7,3-1.6,4.4-2.6C258.2,193.3,256.7,192.9,255.2,193L255.2,193z"/>
	<path class="st0" d="M285.8,195.1c-0.1,1.4-0.6,2.1-1.7,2.1c-1,0-1.5-0.6-1.5-1.7c0-0.2,0-0.6-0.1-1.2l-0.1-1.4
		c-1.5,0.1-3,0.6-4.3,1.5c-1.1,0.9-2,2-2.5,3.3v9.3c0.1,0.8-0.4,1.6-1.2,1.7c-0.1,0-0.3,0-0.4,0c-1,0-1.5-0.6-1.5-1.7v-11.9
		c0-0.4,0-0.9,0-1.7s0-1.3,0-1.7c0-1.1,0.5-1.7,1.5-1.7c1,0,1.7,0.9,1.7,2.8c1.9-2,4.5-3.1,7.2-3.1c0.9-0.1,1.7,0.3,2.2,1.1
		c0.5,1,0.8,2,0.7,3.1C285.8,194.5,285.8,194.9,285.8,195.1z"/>
	<path class="st0" d="M34.6,226.2v1.8v1.7c0.8-0.2,1.6-0.4,2.4-0.4c1,0,2,0,3,0.2c0.5,0.1,0.9,0.6,0.8,1.1c0.1,0.5-0.3,1-0.8,1.1
		c-0.1,0-0.2,0-0.3,0c-0.3,0-0.8,0-1.4-0.1s-1.1-0.1-1.3-0.1c-0.8,0.1-1.7,0.2-2.5,0.5l0,5.3c0,0.3-0.1,0.5-0.3,0.7
		c-0.2,0.2-0.5,0.4-0.8,0.3c-0.3,0-0.5-0.1-0.7-0.3c-0.2-0.2-0.3-0.5-0.3-0.8l0.1-9.9v-0.5c0-0.2,0-0.4,0-0.7v-1.2
		c0-0.3,0.1-0.6,0.3-0.8c0.2-0.2,0.5-0.3,0.7-0.3c0.2,0,0.4,0,0.6,0.2c1.2-0.2,2.3-0.4,3.5-0.4c1,0,2,0.2,3,0.5
		c0.9,0.3,1.3,0.7,1.3,1.1c0,0.3-0.1,0.5-0.3,0.7c-0.2,0.2-0.5,0.3-0.7,0.3c-0.1,0-0.3,0-0.4-0.1c-0.9-0.3-1.9-0.4-2.9-0.4
		C36.6,225.9,35.6,226,34.6,226.2z"/>
	<path class="st0" d="M60,225.6v5.2c-0.1,1.3,0.2,2.7,0.8,3.9c0.6,0.9,1.6,1.3,2.7,1.3c1.1,0,2-0.7,2.5-2.2c0.6-2.2,0.9-4.4,0.8-6.6
		v-1.6c0-1.1,0.4-1.7,1.2-1.7c0.7,0,1,0.5,1,1.4v2.2c0,3.6-0.4,6.3-1.3,8c-0.7,1.6-2.4,2.6-4.2,2.5c-1.1,0-2.1-0.2-3.1-0.7
		c-0.8-0.5-1.4-1.1-1.8-2c-0.4-0.9-0.7-1.8-0.7-2.7c-0.1-0.9-0.1-2.5-0.1-4.7c0-1.1,0-2.2,0.2-3.2c0.1-0.4,0.5-0.8,0.9-0.7
		c0.3,0,0.6,0.2,0.8,0.4C59.9,224.7,60,225.2,60,225.6z"/>
	<path class="st0" d="M98.4,235.3c0.1,0.7,0,1.4-0.3,2c-0.2,0.3-0.6,0.5-1,0.5c-0.4-0.1-0.7-0.2-1-0.5c-1.1-1-2.2-2.1-3.2-3.3
		c-1.8-2-3.5-4.1-5.1-6.2v0.6v0.9l0,2v0.6l0.1,2.5v1.1c0,1.7-0.4,2.6-1.1,2.6c-0.3,0-0.7-0.1-0.9-0.4c-0.2-0.2-0.3-0.5-0.3-0.7
		c0-0.2,0-0.6,0.1-1.1c0-0.3,0.1-0.6,0.1-0.9v-0.5l0.1-2.8v-0.5l-0.1-2.7v-0.3c0-0.5,0-1.1-0.1-1.6c-0.1-0.7-0.1-1.2-0.1-1.5
		c0-0.3,0.2-0.6,0.4-0.9c0.2-0.3,0.6-0.4,0.9-0.4c0.4,0,0.8,0.4,1.3,1.1c1,1.5,2.3,3.2,3.8,5.1c1.4,1.7,2.9,3.4,4.5,4.9v-0.3
		c0-0.1,0-0.2,0-0.3l-0.1-4.5c0-1.1-0.1-1.9-0.1-2.4c0-0.4-0.1-0.7-0.2-1c-0.2-0.4-0.3-0.8-0.3-1.3c0-0.8,0.4-1.2,1.1-1.2
		c1.3,0,1.9,2.6,1.7,7.7v0.5l-0.1,2.7V235.3z"/>
	<path class="st0" d="M116.2,237c-0.7-0.1-1.1-0.4-1.1-1c0-0.6,0-1.5,0.1-2.5v-0.2l0.1-1.7V230c0-0.4,0-0.8,0-1.2v-0.4l0-1V227v-1.5
		v-0.4c0-0.3,0.2-0.6,0.4-0.8c0.2-0.2,0.5-0.4,0.9-0.4c0.5,0.1,1,0.3,1.5,0.6c0.4,0.2,0.8,0.4,1.3,0.5c1.9,0.6,3.7,1.6,5.2,3.1
		c1,1.1,1.6,2.5,1.6,4c0,1.5-0.6,2.9-1.6,3.9c-1.1,1.2-2.8,1.8-5.2,1.8C118.2,237.7,117.1,237.5,116.2,237z M117.3,226.5l0,1.5v0.6
		v2.5l-0.1,4.3l0,0c0.6,0.3,1.2,0.5,1.9,0.5c0.8,0,1.6-0.1,2.4-0.3c0.7-0.2,1.2-0.7,1.6-1.3c0.4-0.6,0.7-1.3,0.7-2.1
		c0-0.8-0.3-1.6-0.7-2.3c-0.5-0.7-1.1-1.3-1.8-1.7C120,227.6,118.7,227,117.3,226.5z"/>
	<path class="st0" d="M150.3,233c-0.2,0-1,0.2-2.2,0.4l-2.3,0.5c-0.3,0.7-0.6,1.4-1,2.3c-0.2,0.5-0.5,1-0.9,1.5
		c-0.2,0.1-0.4,0.2-0.6,0.2c-0.3,0-0.5-0.1-0.7-0.3c-0.2-0.2-0.4-0.5-0.3-0.7c0.3-1.1,0.8-2.2,1.3-3.3c-0.1-0.2-0.1-0.3-0.1-0.5
		c0-0.5,0.4-1,0.9-1.1c2.9-5.2,4.7-7.8,5.3-7.8c0.5,0,0.9,0.4,1.1,1.1l0.5,3l1.3,6.2l0,0l0.5,1.4c0.1,0.3,0.2,0.6,0.3,1
		c0,0.3-0.1,0.6-0.3,0.8c-0.2,0.2-0.5,0.3-0.8,0.3C151.6,237.9,150.9,236.3,150.3,233z M149.3,227.8l-0.4,0.7
		c-0.2,0.3-0.5,0.7-0.8,1.3c-0.3,0.4-0.7,1-1.1,1.8c0.3-0.1,0.6-0.1,0.9-0.2c0.4-0.1,0.7-0.1,1.1-0.2l1-0.2L149.3,227.8z"/>
	<path class="st0" d="M177.7,226.3c-0.3-0.1-0.6-0.1-0.8-0.1c-0.7,0.1-1.4,0.5-1.9,1c-0.8,0.8-1.5,1.7-2.1,2.7
		c-0.6,1-0.9,2.1-0.9,3.2c0,0.7,0.3,1.3,0.7,1.8c0.4,0.5,1,0.8,1.7,0.8c0.7,0,1.3-0.2,1.9-0.5c0.4-0.2,0.8-0.5,1.2-0.7
		c0.3-0.3,0.7-0.5,1.2-0.6c0.3,0,0.6,0.1,0.7,0.3c0.2,0.2,0.3,0.5,0.3,0.7c0,0.5-0.6,1.2-1.8,1.9c-1,0.7-2.2,1-3.4,1.1
		c-1.2,0-2.4-0.5-3.2-1.4c-0.8-0.9-1.3-2.2-1.3-3.4c0.1-2.2,0.9-4.3,2.4-6c1.6-2,3.1-3,4.6-3c0.4,0,0.9,0,1.3,0.1
		c0.2-0.2,0.5-0.4,0.8-0.4c0.4,0,0.8,0.2,0.9,0.6c0.2,0.7,0.3,1.4,0.2,2.2c0,0.3-0.1,0.6-0.3,0.8c-0.2,0.2-0.5,0.4-0.8,0.3
		c-0.4,0-0.8-0.3-1.1-0.9C177.9,226.6,177.8,226.4,177.7,226.3z"/>
	<path class="st0" d="M200.5,226.2c-0.1,2-0.2,3.6-0.2,4.8c0,0.3,0,0.7,0,1.1v0.9l0.1,1.1c0,0.4,0,0.9-0.1,1.3h0.6l2,0
		c0.3,0,0.6,0.1,0.7,0.3c0.2,0.2,0.3,0.5,0.3,0.8c0,0.3-0.1,0.5-0.3,0.7c-0.2,0.2-0.5,0.3-0.7,0.3h-0.4l-2.3,0.1H200
		c-0.6,0-1.2,0.1-1.8,0.2c-0.6,0.1-1.2,0.2-1.7,0.2c-0.3,0-0.5-0.1-0.7-0.3c-0.2-0.2-0.3-0.5-0.3-0.8c0-0.3,0.1-0.6,0.3-0.8
		c0.2-0.2,0.5-0.3,0.7-0.3c0.6,0,1.2-0.1,1.7-0.1c0-0.5,0.1-1,0.1-1.5c0-0.4,0-0.9-0.1-1.5c-0.1-0.6-0.1-1.1-0.1-1.5
		c0-1.5,0.1-3.1,0.2-5l-0.7,0h-0.3h-1.2c-0.3,0-0.6-0.1-0.7-0.3c-0.2-0.2-0.3-0.5-0.3-0.8c0-0.5,0.2-0.8,0.5-0.9
		c1.1-0.2,2.1-0.2,3.2-0.2c0.9,0,1.8,0.1,2.7,0.2c1,0.1,1.6,0.2,1.9,0.3c0.2,0,0.4,0.2,0.6,0.4c0.1,0.2,0.2,0.5,0.2,0.7
		c0,0.3-0.1,0.5-0.3,0.7c-0.2,0.2-0.5,0.3-0.8,0.3c-0.7,0-1.4-0.1-2.1-0.2C200.9,226.3,200.7,226.3,200.5,226.2z"/>
	<path class="st0" d="M220,232.4c0-2.1,0.7-4.2,2-5.9c1.1-1.7,3.1-2.7,5.1-2.7c2.1,0,3.6,0.5,4.6,1.5c1,1.2,1.5,2.8,1.4,4.3
		c0,2.1-0.7,4.2-1.9,6c-1.1,1.6-2.9,2.6-4.9,2.6c-1.6,0-3.2-0.6-4.5-1.7C220.6,235.5,219.9,234,220,232.4z M222.2,232.4
		c0,1,0.4,2,1.2,2.6c0.8,0.7,1.9,1,2.9,1c1.4,0,2.7-0.8,3.3-2.1c0.9-1.3,1.3-2.8,1.3-4.3c0-1.4-0.3-2.3-0.9-2.8
		c-0.9-0.6-1.9-0.9-3-0.8c-1.4,0.1-2.7,0.8-3.5,2C222.7,229.3,222.2,230.8,222.2,232.4L222.2,232.4z M226.8,222.4
		c-0.3,0-0.5-0.1-0.7-0.3c-0.2-0.2-0.3-0.4-0.3-0.7c0-0.3,0.1-0.5,0.3-0.7c0.5-0.5,1-1.1,1.4-1.7c0.4-0.6,1-1.1,1.6-1.5
		c0.2-0.1,0.4-0.2,0.6-0.2c0.3,0,0.5,0.1,0.7,0.3c0.2,0.2,0.3,0.4,0.3,0.7c0,0.3-0.2,0.6-0.4,0.7c-0.6,0.5-1.1,1-1.5,1.6
		c-0.4,0.6-0.9,1.1-1.4,1.6C227.2,222.3,227,222.4,226.8,222.4L226.8,222.4z"/>
	<path class="st0" d="M262.2,235.3c0.1,0.7,0,1.4-0.3,2c-0.2,0.3-0.6,0.5-1,0.5c-0.4-0.1-0.7-0.2-1-0.5c-1.1-1-2.2-2.1-3.2-3.3
		c-1.8-2-3.5-4.1-5.1-6.2v0.6v0.9l0,2v0.6l0.1,2.5v1.1c0,1.7-0.4,2.6-1.1,2.6c-0.3,0-0.7-0.1-0.9-0.4c-0.2-0.2-0.3-0.5-0.3-0.7
		c0-0.2,0-0.6,0.1-1.1c0-0.3,0.1-0.6,0.1-0.9v-0.5l0.1-2.8v-0.5l-0.1-2.7v-0.3c0-0.5,0-1.1-0.1-1.6c-0.1-0.7-0.1-1.2-0.1-1.5
		c0-0.3,0.2-0.6,0.4-0.9c0.2-0.3,0.6-0.4,0.9-0.4c0.4,0,0.8,0.4,1.3,1.1c1,1.5,2.2,3.2,3.8,5.1c1.4,1.7,2.9,3.4,4.5,4.9v-0.3
		c0-0.1,0-0.2,0-0.3l-0.1-4.5c0-1.1-0.1-1.9-0.1-2.4c0-0.4-0.1-0.7-0.2-1c-0.2-0.4-0.3-0.8-0.3-1.3c0-0.8,0.4-1.2,1.1-1.2
		c1.3,0,1.8,2.6,1.7,7.7v0.5l0,2.7L262.2,235.3z"/>
</g>
</svg>
