<?xml version="1.0" encoding="utf-8"?>
<!-- Generator: Adobe Illustrator 22.1.0, SVG Export Plug-In . SVG Version: 6.00 Build 0)  -->
<svg version="1.1" id="Capa_1" xmlns="http://www.w3.org/2000/svg" xmlns:xlink="http://www.w3.org/1999/xlink" x="0px" y="0px"
	 viewBox="0 0 553.4 85" style="enable-background:new 0 0 553.4 85;" xml:space="preserve">
<title>logo</title>
<g>
	<path d="M111,82.2c-20.7,0-37.5-16.8-37.5-37.5v-4C73.5,23.3,59.4,9.2,42,9.2S10.5,23.3,10.5,40.7c0,1.7-1.3,3-3,3s-3-1.3-3-3
		C4.5,20,21.3,3.2,42,3.2S79.5,20,79.5,40.7v4c0,17.4,14.1,31.5,31.5,31.5s31.5-14.1,31.5-31.5c0-1.7,1.3-3,3-3s3,1.3,3,3
		C148.5,65.4,131.7,82.2,111,82.2z"/>
</g>
<g>
	<rect x="99" y="15.7" width="7" height="11"/>
</g>
<g>
	<rect x="114" y="15.7" width="7" height="11"/>
</g>
<path d="M197.3,41.5c-1.3,0-2.1-0.7-2.2-2.2l-0.6-5c-0.2-1.7-0.3-3.3-0.3-5c0-0.4,0-1.2,0.1-2.2s0.1-1.7,0.1-2.2
	c0-3.3-0.6-4.9-1.8-4.9c-1.7,0-3.3,1-4.9,3c-1.5,2.1-2.6,4.5-3.3,7c0,0.6-0.1,1.3-0.2,2.2c-0.1,0.7-0.1,1.5-0.1,2.2
	c0,0.5,0,1.1,0.1,2.1s0.1,1.6,0.1,2.1c0,0.6-0.2,1.2-0.6,1.7c-0.4,0.4-1,0.7-1.6,0.6c-0.6,0-1.2-0.2-1.6-0.6c-0.4-0.4-0.6-1-0.6-1.7
	c0-0.5-0.1-1.1-0.1-2.1c-0.1-0.7-0.1-1.4-0.1-2.1c0-1.6,0.1-3.7,0.3-6.5s0.3-5,0.3-6.5c0-0.5,0-1.2-0.1-2.2s-0.1-1.7-0.1-2.2
	c0-0.6,0.2-1.2,0.6-1.6c0.4-0.4,1-0.6,1.6-0.6c1.4,0,2.2,1,2.3,3l0.1,2.7c2.6-3.4,5.2-5.1,7.9-5.1c2.2-0.1,4.3,1.2,5.1,3.2
	c0.8,2,1.1,4.2,1.1,6.3v2.3v2.1c0,1.6,0.2,3.3,0.5,4.9c0.3,1.6,0.4,3.2,0.5,4.9c0,0.6-0.2,1.2-0.6,1.6
	C198.5,41.3,197.9,41.5,197.3,41.5z"/>
<path d="M217.4,29.5c0,0.9,0,2.3,0.1,4.1s0.1,3.2,0.1,4.1c0,0.6-0.2,1.2-0.6,1.6c-0.4,0.4-1,0.7-1.6,0.6c-0.6,0-1.2-0.2-1.6-0.6
	c-0.4-0.4-0.7-1-0.6-1.6c0-0.9,0-2.3-0.1-4.1s-0.1-3.2-0.1-4.1c0-1.4,0.1-3.2,0.2-5.3s0.2-3.9,0.2-5.3c0-0.6,0.2-1.2,0.6-1.7
	c0.4-0.4,1-0.7,1.6-0.6c0.6,0,1.2,0.2,1.6,0.6c0.4,0.4,0.7,1,0.6,1.7c0,1.4-0.1,3.2-0.2,5.3S217.4,28,217.4,29.5z M216.4,11
	c-0.7,0-1.4-0.3-1.9-0.8c-0.5-0.5-0.8-1.2-0.8-1.9c0-0.7,0.3-1.4,0.8-1.9c0.5-0.5,1.2-0.8,1.9-0.8c0.7,0,1.4,0.3,1.9,0.8
	c0.5,0.5,0.8,1.2,0.8,1.9c0,0.7-0.3,1.4-0.8,1.9C217.8,10.7,217.1,11,216.4,11L216.4,11z"/>
<path d="M250.4,41.5c-1.3,0-2-0.7-2.2-2.2l-0.6-5c-0.2-1.7-0.3-3.3-0.3-5c0-0.4,0-1.2,0.1-2.2s0.1-1.7,0.1-2.2
	c0-3.3-0.6-4.9-1.8-4.9c-1.7,0-3.3,1-4.9,3c-1.5,2.1-2.6,4.5-3.3,7c0,0.6-0.1,1.3-0.2,2.2c-0.1,0.7-0.1,1.5-0.1,2.2
	c0,0.5,0,1.1,0.1,2.1s0.1,1.6,0.1,2.1c0,0.6-0.2,1.2-0.6,1.7c-0.4,0.4-1,0.7-1.6,0.6c-0.6,0-1.2-0.2-1.6-0.6c-0.4-0.4-0.6-1-0.6-1.7
	c0-0.5,0-1.1-0.1-2.1c-0.1-0.7-0.1-1.4-0.1-2.1c0-1.6,0.1-3.7,0.3-6.5s0.3-5,0.3-6.5c0-0.5,0-1.2-0.1-2.2s-0.1-1.7-0.1-2.2
	c0-0.6,0.2-1.2,0.6-1.6c0.4-0.4,1-0.6,1.6-0.6c1.4,0,2.2,1,2.3,3l0.1,2.7c2.6-3.4,5.2-5.1,7.9-5.1c2.2-0.1,4.3,1.2,5.1,3.2
	c0.8,2,1.1,4.2,1.1,6.3v2.3v2.1c0,1.6,0.2,3.3,0.5,4.9c0.3,1.6,0.5,3.2,0.5,4.9c0,0.6-0.2,1.2-0.6,1.6
	C251.6,41.3,251,41.5,250.4,41.5z M239.6,4.4c1.3-0.1,2.7,0.4,3.7,1.3l1.9,2.4c0.6,0.8,1.5,1.3,2.6,1.3c0.7,0.1,1.5-0.3,1.9-0.8l1-2
	l0.5-1.3c0.3-0.5,0.8-0.7,1.4-0.7c0.8-0.1,1.6,0.4,1.7,1.3c0,0.1,0,0.3,0,0.4c-0.1,1-0.5,1.9-1,2.8c-0.4,0.9-0.9,1.7-1.6,2.5
	c-0.9,0.9-2,1.3-3.3,1.3c-1.7,0.1-3.3-0.4-4.7-1.3c-0.8-0.7-1.4-1.6-2-2.4c-0.5-0.8-1.3-1.2-2.1-1.3c-0.4,0-0.9,0.1-1.3,0.3
	c-0.4,0.2-0.7,0.5-1,0.8l-1,1.9c-0.3,0.6-0.8,1-1.5,1c-0.5,0-0.9-0.2-1.2-0.5c-0.3-0.3-0.5-0.7-0.5-1.2c0-0.2,0-0.4,0.1-0.5
	c0.4-1.5,1.2-2.8,2.3-3.8C236.6,4.9,238,4.3,239.6,4.4z"/>
<path d="M273.6,41.2c-2.5,0-4.9-1-6.6-2.8c-2.1-2.3-3.3-5.3-3.2-8.5c-0.1-3.2,0.8-6.4,2.6-9.1c2-3,5.3-4.7,8.9-4.6
	c2.9-0.1,5.6,1.6,6.9,4.2c1.3,2.5,1.9,5.3,1.8,8.1c0,3.1-0.9,6.1-2.6,8.6C279.7,39.7,276.8,41.3,273.6,41.2z M275,20.8
	c-2.2,0-4.2,1.2-5.2,3.2c-1,1.8-1.5,3.8-1.5,5.9c-0.1,1.9,0.5,3.8,1.8,5.2c0.9,1,2.2,1.5,3.5,1.5c1.5,0,3-0.6,4.1-1.7
	c1.3-1.4,2.1-3.3,2-5.2C280,23.8,278.4,20.8,275,20.8L275,20.8z"/>
<path d="M339,19.5l-7.9,17.1c-1.9,4.2-3.4,7.6-4.5,10.4l-1.5,4.4c-0.2,0.9-1,1.6-2,1.6c-0.6,0-1.2-0.2-1.6-0.6
	c-0.5-0.4-0.7-1-0.7-1.6c0-1.5,1.6-5.9,4.9-13.2l-8.2-15.7l-1-1.7c-0.4-0.5-0.6-1.1-0.6-1.8c0-0.6,0.3-1.2,0.7-1.6
	c0.4-0.4,1-0.7,1.6-0.7c0.6,0,1.3,0.3,1.6,0.8c3.3,4.8,6,10,8.3,15.3l3.3-7.9c1.2-2.7,2.4-5.1,3.5-7c0.3-0.8,1.1-1.3,1.9-1.3
	c0.6,0,1.2,0.2,1.7,0.7c0.5,0.4,0.7,1,0.7,1.6C339.3,18.8,339.2,19.1,339,19.5z"/>
<path d="M383.2,41.3c-2.9,0.1-5.7-0.9-7.8-2.8c-2.2-2-3.4-4.9-3.3-7.8c0.1-3.4,1.2-6.7,3.1-9.6c2.3-3.7,4.8-5.5,7.7-5.5
	c1.7,0,3.4,0.4,5,1c2.3,0.9,3.5,2,3.5,3.3c0,0.6-0.2,1.1-0.6,1.5c-0.3,0.4-0.9,0.7-1.4,0.7c-0.4,0-0.8-0.1-1.2-0.4l-0.9-0.8
	c-1.3-0.8-2.9-1.2-4.4-1.1c-1.5,0-3.1,1.4-4.6,4.2c-1.2,2-1.9,4.3-2.1,6.6c-0.1,1.8,0.7,3.6,2,4.8c1.4,1.1,3.1,1.7,4.9,1.6
	c1,0,2-0.3,2.9-0.7l2.6-1.4c0.3-0.2,0.6-0.3,1-0.4c0.6,0,1.1,0.2,1.5,0.7c0.4,0.4,0.6,1,0.6,1.5c0,1.1-1.2,2.2-3.5,3.2
	C386.8,40.7,385,41.1,383.2,41.3z"/>
<path d="M422.8,41.3c-0.3,0-0.8-0.3-1.6-1c-0.6-0.5-1.1-1.1-1.5-1.7c-1.2,0.7-2.5,1.3-3.9,1.8c-0.9,0.4-1.8,0.6-2.8,0.6
	c-3.6,0-6.1-1-7.8-3s-2.3-4.8-2.3-8.7c-0.1-3.5,1.3-6.9,3.8-9.4c2.3-2.5,5.6-4,9.1-3.9c1.5,0,3,0.4,4.5,1c2.1,0.9,3.1,1.9,3.1,3.1
	c0,0.4-0.2,0.8-0.5,1.1c-0.2,0.9-0.3,1.9-0.4,2.8c-0.1,1.3-0.1,3-0.1,5.1c0,1.5,0.1,3,0.4,4.5c0.4,1.4,0.9,2.7,1.4,4
	c0.1,0.3,0.3,0.7,0.5,1.2l0.1,0.4c0,0.6-0.2,1.1-0.6,1.5C423.9,41.1,423.4,41.3,422.8,41.3z M418.1,25.5c0-0.7,0-1.4,0.1-2.1
	c0.1-0.8,0.2-1.6,0.4-2.5c-0.5-0.2-0.9-0.5-1.4-0.6c-0.3-0.1-0.7-0.2-1-0.2c-2.4,0-4.6,1.1-6.1,2.9c-1.7,1.8-2.6,4.2-2.5,6.6
	c-0.1,2,0.3,3.9,1.3,5.6c0.9,1.3,2.4,2,4,1.9c1.3,0,2.6-0.2,3.7-0.8c0.8-0.5,1.6-1.1,2.3-1.7C418.4,31.5,418.2,28.5,418.1,25.5z
	 M414.8,12.8c-0.6,0-1.1-0.2-1.5-0.6c-0.4-0.4-0.6-0.9-0.6-1.5c0-0.6,0.3-1.1,0.7-1.5c1.1-1.1,2.1-2.4,3-3.6
	c0.9-1.2,2.1-2.3,3.4-3.3c0.3-0.3,0.8-0.4,1.2-0.4c0.5,0,1.1,0.2,1.4,0.7c0.4,0.4,0.6,0.9,0.6,1.5c0,0.6-0.3,1.2-0.9,1.6
	c-1.2,1-2.2,2.1-3.1,3.3c-0.8,1.2-1.8,2.3-2.9,3.3C415.8,12.5,415.3,12.7,414.8,12.8z"/>
<path d="M453.8,41.5c-1.3,0-2-0.7-2.2-2.2l-0.6-5c-0.2-1.7-0.3-3.3-0.3-5c0-0.4,0-1.2,0.1-2.2s0.1-1.7,0.1-2.2
	c0-3.3-0.6-4.9-1.8-4.9c-1.7,0-3.3,1-4.9,3c-1.5,2.1-2.6,4.5-3.3,7c0,0.6-0.1,1.3-0.2,2.2c-0.1,0.7-0.1,1.5-0.1,2.2
	c0,0.7,0.1,1.4,0.1,2.1c0.1,0.9,0.1,1.6,0.1,2.1c0,0.6-0.2,1.2-0.6,1.7c-0.4,0.4-1,0.7-1.6,0.6c-0.6,0-1.2-0.2-1.6-0.6
	c-0.4-0.4-0.6-1-0.6-1.7c0-0.5,0-1.1-0.1-2.1S436,35,436,34.5c0-1.6,0.1-3.7,0.3-6.5s0.3-5,0.3-6.5c0-0.5,0-1.2-0.1-2.2
	s-0.1-1.7-0.1-2.1c0-0.6,0.2-1.2,0.6-1.6c0.4-0.4,1-0.6,1.6-0.6c1.4,0,2.2,1,2.3,3l0.1,2.7c2.6-3.4,5.2-5.1,7.9-5.1
	c2.2-0.1,4.3,1.2,5.1,3.2c0.8,2,1.1,4.2,1.1,6.3v2.3v2.1c0,1.6,0.2,3.3,0.5,4.9c0.3,1.6,0.5,3.2,0.5,4.9c0,0.6-0.2,1.2-0.6,1.6
	C455,41.3,454.4,41.5,453.8,41.5z"/>
<path d="M478.8,41.3c-2.9,0.1-5.7-0.9-7.8-2.8c-2.2-2-3.4-4.9-3.3-7.8c0.1-3.4,1.2-6.7,3.1-9.6c2.3-3.7,4.9-5.5,7.7-5.5
	c1.7,0,3.4,0.4,5,1c2.3,0.9,3.5,2,3.5,3.3c0,0.6-0.2,1.1-0.6,1.5c-0.3,0.4-0.9,0.7-1.4,0.7c-0.4,0-0.8-0.1-1.2-0.4l-0.9-0.8
	c-1.3-0.8-2.9-1.2-4.4-1.1c-1.5,0-3.1,1.4-4.6,4.2c-1.2,2-1.9,4.3-2.1,6.6c-0.1,1.8,0.7,3.6,2.1,4.8c1.4,1.1,3.1,1.7,4.9,1.6
	c1,0,2-0.3,2.9-0.7l2.6-1.4c0.3-0.2,0.6-0.3,1-0.4c0.6,0,1.1,0.2,1.5,0.7c0.4,0.4,0.6,1,0.6,1.5c0,1.1-1.2,2.2-3.5,3.2
	C482.4,40.7,480.6,41.1,478.8,41.3z"/>
<path d="M510.9,40.9c-3,0.1-6-0.8-8.4-2.6c-2.4-2-3.6-4.9-3.5-8c-0.1-3.5,0.9-7,2.9-9.9c1.8-2.8,5-4.5,8.4-4.4
	c2.1-0.1,4.3,0.4,6.2,1.3c1.9,0.9,3,2.8,2.9,4.8c0,1.5-0.9,2.9-2.6,4.2c-1.5,1-3.2,1.8-4.8,2.6l-8.7,4.1c0.8,1.2,1.9,2.2,3.2,2.8
	c1.4,0.7,2.9,1,4.4,1c1.3,0,2.5-0.2,3.7-0.6c1.8-0.5,3-1.2,3.5-2s1.1-1.2,1.7-1.2c0.5,0,1.1,0.2,1.4,0.6c0.4,0.4,0.6,0.9,0.6,1.4
	c0,1.7-1.4,3.1-4.1,4.3C515.6,40.3,513.3,40.9,510.9,40.9z M510.3,20.1c-1.8,0-3.5,0.8-4.6,2.2c-1.4,1.9-2.4,4.1-2.8,6.5l7-3.3
	c2.1-0.9,4.1-2.1,5.9-3.5C514.3,20.6,512.3,20,510.3,20.1L510.3,20.1z"/>
<path d="M551.4,23c-0.1,1.9-0.9,2.8-2.3,2.8c-1.3,0-2-0.8-2-2.3c0-0.3,0-0.8-0.1-1.6l-0.1-1.9c-2.1,0.2-4,0.9-5.8,2
	c-1.5,1.2-2.7,2.7-3.4,4.5V39c0.2,1.1-0.6,2.1-1.7,2.3c-0.2,0-0.4,0-0.6,0c-1.3,0-2-0.8-2-2.3V23c0-0.5,0-1.3,0-2.3s0.1-1.8,0.1-2.3
	c0-1.5,0.7-2.3,2-2.3s2.2,1.3,2.3,3.8c2.5-2.7,6-4.2,9.7-4.2c1.2-0.1,2.3,0.4,2.9,1.4c0.7,1.3,1,2.7,0.9,4.2
	C551.4,22.2,551.4,22.7,551.4,23z"/>
<path d="M213.7,64.8v2.4v2.3c1-0.3,2.1-0.5,3.2-0.6c1.3,0,2.7,0,4,0.3c0.7,0.1,1.2,0.8,1.1,1.5c0.1,0.7-0.4,1.3-1.1,1.4
	c-0.1,0-0.2,0-0.4,0c-0.4,0-1.1,0-1.9-0.1s-1.4-0.1-1.8-0.1c-1.1,0.1-2.2,0.3-3.3,0.7l-0.1,7.1c0,0.4-0.1,0.7-0.4,1
	c-0.3,0.3-0.7,0.5-1.1,0.5c-0.4,0-0.7-0.1-1-0.4c-0.3-0.3-0.4-0.7-0.4-1.1l0.2-13.3v-0.6c0-0.3,0-0.6,0-0.9v-1.6
	c0-0.4,0.1-0.8,0.4-1.1c0.3-0.3,0.6-0.4,1-0.4c0.3,0,0.5,0.1,0.7,0.2c1.6-0.3,3.1-0.5,4.7-0.5c1.4,0,2.7,0.2,4,0.7
	c1.2,0.4,1.8,0.9,1.8,1.5c0,0.4-0.2,0.7-0.4,1c-0.2,0.3-0.6,0.5-1,0.4c-0.2,0-0.4,0-0.5-0.1c-1.2-0.4-2.6-0.6-3.9-0.6
	C216.3,64.4,215,64.5,213.7,64.8z"/>
<path d="M247.8,64v7c-0.1,1.8,0.3,3.6,1.1,5.2c0.8,1.2,2.2,1.8,3.6,1.7c1.5,0,2.6-1,3.3-2.9c0.8-2.9,1.2-5.9,1-8.9V64
	c0-1.5,0.6-2.3,1.7-2.3c0.9,0,1.4,0.6,1.4,1.8v3c0,4.8-0.6,8.4-1.8,10.7c-1,2.2-3.2,3.5-5.7,3.4c-1.4,0.1-2.9-0.3-4.1-0.9
	c-1.1-0.6-1.9-1.5-2.5-2.7c-0.6-1.1-0.9-2.4-1-3.7c-0.1-1.3-0.2-3.4-0.2-6.3c-0.1-1.5,0-2.9,0.3-4.3c0.1-0.6,0.7-1,1.3-1
	c0.4,0,0.8,0.2,1.1,0.6C247.7,62.8,247.8,63.4,247.8,64z"/>
<path d="M299.5,77c0.1,0.9-0.1,1.8-0.4,2.7c-0.3,0.4-0.8,0.7-1.3,0.7c-0.5-0.1-1-0.3-1.3-0.6c-1.5-1.4-3-2.8-4.3-4.4
	c-2.5-2.7-4.8-5.5-6.9-8.4v0.8v1.2l-0.1,2.7v0.9l0.1,3.3v1.5c0,2.3-0.5,3.4-1.5,3.4c-0.5,0-0.9-0.2-1.2-0.5c-0.3-0.3-0.4-0.6-0.4-1
	c0-0.3,0-0.8,0.1-1.5c0.1-0.4,0.1-0.8,0.1-1.3v-0.6l0.1-3.8v-0.7l-0.1-3.6v-0.5c0-0.7-0.1-1.5-0.2-2.2c-0.1-1-0.1-1.7-0.1-2
	c0-0.4,0.2-0.9,0.5-1.2c0.3-0.3,0.8-0.5,1.3-0.5c0.5,0,1.1,0.5,1.7,1.5c1.3,2,3,4.3,5.1,6.8c1.9,2.3,3.9,4.6,6.1,6.6V76
	c0-0.2,0-0.3,0-0.5l-0.2-6c0-1.5-0.1-2.5-0.2-3.2c-0.1-0.5-0.2-0.9-0.3-1.4c-0.2-0.5-0.4-1.1-0.4-1.7c0-1.1,0.5-1.6,1.5-1.6
	c1.7,0,2.5,3.4,2.3,10.3v0.7l-0.1,3.6V77z"/>
<path d="M323.3,79.4c-1-0.1-1.4-0.6-1.4-1.3s0-2.1,0.1-3.4v-0.3l0.1-2.3V70c0-0.5,0-1.1,0-1.7v-0.5l-0.1-1.3v-0.6v-2v-0.5
	c0-0.4,0.2-0.8,0.5-1.1c0.3-0.3,0.7-0.5,1.2-0.5c0.7,0.2,1.4,0.4,2,0.7c0.6,0.3,1.1,0.5,1.7,0.7c2.6,0.8,5,2.2,6.9,4.1
	c1.4,1.5,2.2,3.4,2.2,5.4c0,2-0.8,3.8-2.2,5.2c-1.5,1.6-3.8,2.4-6.9,2.4C326,80.3,324.6,80,323.3,79.4z M324.9,65.2l0,2V68v3.4
	l-0.1,5.8l0,0c0.8,0.4,1.7,0.7,2.6,0.7c1.1,0,2.2-0.1,3.2-0.4c0.9-0.3,1.6-1,2.1-1.8c0.6-0.8,0.9-1.8,0.9-2.8c0-1.1-0.4-2.2-1-3
	c-0.6-0.9-1.5-1.7-2.4-2.2C328.5,66.7,326.7,65.9,324.9,65.2z"/>
<path d="M369.2,73.9c-0.3,0-1.3,0.2-2.9,0.6l-3.1,0.6c-0.4,0.9-0.8,1.9-1.3,3.1c-0.3,0.7-0.7,1.4-1.2,2c-0.2,0.2-0.5,0.3-0.8,0.3
	c-0.4,0-0.7-0.2-1-0.4c-0.3-0.2-0.5-0.6-0.5-1c0.4-1.5,1-3,1.8-4.4c-0.1-0.2-0.2-0.5-0.1-0.7c0-0.7,0.5-1.4,1.2-1.5
	c3.9-7,6.3-10.5,7.2-10.5c0.7,0,1.2,0.5,1.5,1.5l0.7,4.1l1.8,8.3l0,0l0.7,1.9c0.2,0.4,0.3,0.9,0.3,1.3c0,0.4-0.1,0.8-0.4,1.1
	c-0.3,0.3-0.7,0.4-1.1,0.4C371,80.6,370,78.4,369.2,73.9z M367.8,66.9l-0.6,1c-0.3,0.5-0.6,1-1.1,1.8c-0.4,0.6-0.9,1.3-1.5,2.4
	c0.4-0.1,0.8-0.2,1.3-0.3c0.5-0.1,1-0.2,1.5-0.3l1.3-0.3L367.8,66.9z"/>
<path d="M406,64.9c-0.4-0.1-0.8-0.1-1.1-0.1c-1,0.1-1.9,0.6-2.5,1.3c-1.1,1-2.1,2.2-2.8,3.6c-0.8,1.3-1.2,2.8-1.2,4.3
	c0,0.9,0.3,1.8,1,2.5c0.5,0.7,1.4,1.1,2.3,1.1c0.9,0,1.8-0.2,2.5-0.7c0.5-0.3,1.1-0.6,1.6-1c0.4-0.4,1-0.7,1.6-0.8
	c0.4,0,0.7,0.2,1,0.4c0.3,0.3,0.4,0.6,0.4,1c0,0.7-0.8,1.6-2.5,2.5c-1.4,0.9-3,1.4-4.6,1.5c-1.7,0-3.3-0.7-4.3-1.9
	c-1.1-1.3-1.7-2.9-1.7-4.6c0.1-3,1.2-5.8,3.2-8.1c2.1-2.7,4.2-4.1,6.2-4.1c0.6,0,1.2,0,1.8,0.2c0.3-0.3,0.7-0.5,1.1-0.5
	c0.5,0,1,0.3,1.2,0.8c0.3,0.9,0.4,1.9,0.3,2.9c0,0.4-0.1,0.8-0.4,1.1c-0.3,0.3-0.7,0.5-1.1,0.5c-0.6,0-1-0.4-1.5-1.2
	C406.3,65.3,406.2,65.1,406,64.9z"/>
<path d="M436.7,64.9c-0.2,2.7-0.3,4.8-0.3,6.4c0,0.4,0,0.9,0,1.5v1.2l0.1,1.5c0,0.6,0,1.2-0.1,1.8h0.9l2.7-0.1c0.4,0,0.7,0.1,1,0.4
	c0.3,0.3,0.4,0.7,0.4,1.1c0,0.4-0.1,0.7-0.4,1c-0.3,0.3-0.6,0.4-1,0.4h-0.5l-3.1,0.1h-0.3c-0.8,0-1.6,0.1-2.4,0.2
	c-0.8,0.1-1.6,0.2-2.4,0.2c-0.4,0-0.7-0.1-1-0.4c-0.3-0.3-0.4-0.7-0.4-1.1c0-0.4,0.1-0.8,0.4-1.1c0.3-0.3,0.6-0.4,1-0.4
	c0.8,0,1.6-0.1,2.4-0.2c0.1-0.6,0.1-1.3,0.1-2c0-0.6,0-1.2-0.1-2s-0.1-1.5-0.1-2c0-2,0.1-4.2,0.3-6.7l-0.9,0.1h-0.4H431
	c-0.4,0-0.7-0.1-1-0.4c-0.3-0.3-0.4-0.7-0.4-1.1c0-0.7,0.2-1.1,0.7-1.3c1.4-0.2,2.8-0.3,4.3-0.3c1.2,0,2.4,0.1,3.6,0.2
	c1.4,0.2,2.2,0.3,2.5,0.3c0.3,0.1,0.6,0.2,0.8,0.5c0.2,0.3,0.3,0.6,0.3,1c0,0.4-0.1,0.7-0.4,1c-0.3,0.3-0.7,0.4-1.1,0.4
	c-0.9,0-1.9-0.1-2.8-0.3C437.3,64.9,437,64.9,436.7,64.9z"/>
<path d="M462.9,73.1c0-2.9,1-5.7,2.8-7.9c1.5-2.3,4.1-3.6,6.9-3.6c2.8,0,4.9,0.7,6.2,2c1.4,1.6,2.1,3.7,1.9,5.8c0,2.9-0.9,5.7-2.6,8
	c-1.5,2.2-3.9,3.5-6.6,3.5c-2.2,0-4.4-0.7-6-2.2C463.8,77.3,462.9,75.3,462.9,73.1z M465.9,73.1c0,1.4,0.5,2.7,1.6,3.5
	c1.1,0.9,2.5,1.4,3.9,1.3c1.9,0,3.6-1.1,4.5-2.8c1.1-1.7,1.8-3.8,1.8-5.8c0-1.8-0.4-3.1-1.2-3.8c-1.2-0.8-2.6-1.2-4-1.1
	c-1.9,0.1-3.7,1.1-4.7,2.7C466.5,68.9,465.8,71,465.9,73.1L465.9,73.1z M472,59.7c-0.3,0-0.7-0.1-0.9-0.4c-0.3-0.2-0.4-0.6-0.4-0.9
	c0-0.4,0.2-0.7,0.5-1c0.7-0.7,1.3-1.5,1.9-2.3c0.6-0.8,1.3-1.5,2.1-2.1c0.2-0.2,0.5-0.3,0.8-0.3c0.4,0,0.7,0.1,0.9,0.4
	c0.2,0.2,0.4,0.6,0.4,0.9c0,0.4-0.2,0.8-0.5,1c-0.8,0.6-1.4,1.3-2,2.1c-0.5,0.8-1.2,1.5-1.9,2.1C472.6,59.5,472.3,59.7,472,59.7
	L472,59.7z"/>
<path d="M519.6,77c0.1,0.9-0.1,1.8-0.4,2.7c-0.3,0.4-0.8,0.7-1.3,0.7c-0.5-0.1-1-0.3-1.3-0.6c-1.5-1.4-3-2.8-4.3-4.4
	c-2.5-2.7-4.8-5.5-6.9-8.4v0.8v1.2l-0.1,2.7v0.9l0.1,3.3v1.5c0,2.3-0.5,3.4-1.5,3.4c-0.5,0-0.9-0.2-1.2-0.5c-0.3-0.3-0.4-0.6-0.4-1
	c0-0.3,0-0.8,0.1-1.5c0.1-0.4,0.1-0.8,0.1-1.3v-0.6l0.1-3.8v-0.7l-0.1-3.7v-0.5c0-0.7-0.1-1.5-0.2-2.2c-0.1-1-0.1-1.7-0.1-2
	c0-0.4,0.2-0.9,0.5-1.2c0.3-0.3,0.8-0.5,1.3-0.5c0.5,0,1.1,0.5,1.7,1.5c1.3,2,3,4.3,5.1,6.8c1.9,2.3,3.9,4.6,6.1,6.6V76
	c0-0.2,0-0.3,0-0.5l-0.2-6c0-1.5-0.1-2.5-0.2-3.2c0-0.5-0.1-0.9-0.3-1.4c-0.2-0.5-0.4-1.1-0.4-1.7c0-1.1,0.5-1.6,1.5-1.6
	c1.7,0,2.5,3.4,2.3,10.4v0.7l-0.1,3.7L519.6,77z"/>
</svg>
