<svg id="Capa_1" data-name="Capa 1" xmlns="http://www.w3.org/2000/svg" viewBox="0 0 52 52"><defs><style>.cls-1{fill:#fff;}</style></defs><title>mail-icon</title><path class="cls-1" d="M26,1A25,25,0,1,0,51,26,25,25,0,0,0,26,1Zm0,8.78L40.79,19H11.21Zm15,24h0a2.68,2.68,0,0,1-2.68,2.68H13.7A2.68,2.68,0,0,1,11,33.74V19.59a2.4,2.4,0,0,1,.05-.46L25.2,28l.05,0,.06,0a1.66,1.66,0,0,0,.31.12h0a1.41,1.41,0,0,0,.35.05h0a1.34,1.34,0,0,0,.35-.05h0a1.66,1.66,0,0,0,.31-.12l.06,0,.05,0,14.14-8.82a3.57,3.57,0,0,1,0,.46V33.74Z"/></svg>