<svg id="Capa_1" data-name="Capa 1" xmlns="http://www.w3.org/2000/svg" viewBox="0 0 52 52"><defs><style>.cls-1{fill:#fff;}</style></defs><title>mail-icon</title><path class="cls-1" d="M26,1A25,25,0,1,0,51,26,25,25,0,0,0,26,1ZM39.2,37.48l-2,2a3.63,3.63,0,0,1-1.44.58A23.6,23.6,0,0,1,11.94,16.18a3.8,3.8,0,0,1,.58-1.37l2-2a3.34,3.34,0,0,1,3.12-.73l.42.14a4,4,0,0,1,2.29,2.41l1,3.7a3.59,3.59,0,0,1-.82,3.16L19.2,22.82a14.2,14.2,0,0,0,10,10l1.34-1.34a3.62,3.62,0,0,1,3.17-.83l3.69,1a4,4,0,0,1,2.42,2.28l.14.43A3.38,3.38,0,0,1,39.2,37.48Z"/></svg>