<?xml version="1.0" encoding="utf-8"?>
<!-- Generator: Adobe Illustrator 22.1.0, SVG Export Plug-In . SVG Version: 6.00 Build 0)  -->
<svg version="1.1" id="Capa_1" xmlns="http://www.w3.org/2000/svg" xmlns:xlink="http://www.w3.org/1999/xlink" x="0px" y="0px"
	 viewBox="0 0 56.2 56.2" style="enable-background:new 0 0 56.2 56.2;" xml:space="preserve">
<style type="text/css">
	.st0{fill:#FFFFFF;}
</style>
<path class="st0" d="M47.6,45.6L36.6,32l7.3-9.5c0,0,0.1-0.1,0.1-0.1c3.3-5.8-4.1-18.6-5-20c0,0,0,0,0,0c-0.1-0.1-0.1-0.2-0.2-0.2
	c0,0-0.1,0-0.1-0.1c-0.1,0-0.1-0.1-0.2-0.1c0,0,0,0,0,0c0,0,0,0,0,0c-6.7-2.7-14-2.7-20.7,0c0,0,0,0,0,0c0,0,0,0,0,0
	c-0.1,0-0.1,0.1-0.1,0.1c0,0-0.1,0-0.1,0.1c-0.1,0.1-0.2,0.2-0.2,0.2c0,0,0,0,0,0c-0.9,1.4-8.3,14.2-5,20c0,0,0,0.1,0.1,0.1l7.3,9.5
	L8.6,45.6c-1.6,2-1.4,4.8,0.5,6.5l3.4,3c0.9,0.8,2,1.2,3.1,1.2c0.1,0,0.3,0,0.4,0c1.3-0.1,2.5-0.8,3.3-1.8L28.1,43l8.8,11.4
	c0.8,1,2,1.7,3.3,1.8c0.1,0,0.3,0,0.4,0c1.1,0,2.3-0.4,3.1-1.2l3.4-3C49,50.4,49.2,47.5,47.6,45.6z M23,15.4c3.3-1.2,7-1.2,10.3,0
	l-5.1,6.3L23,15.4z M42.3,21.4l-7,9.1l-5.9-7.2l5.5-6.7c0.2-0.2,3.3-4.1,4.1-10C41.3,11.1,44,18.2,42.3,21.4z M37.1,3.6l-0.3,4
	c0,0,0,0.1,0,0.1c0,0.2-0.1,0.5-0.2,0.7c0,0.1-0.1,0.2-0.1,0.4c-0.1,0.2-0.1,0.4-0.2,0.6c0,0.1-0.1,0.3-0.1,0.4
	c0,0.2-0.1,0.3-0.2,0.5c-0.1,0.2-0.1,0.4-0.2,0.6c0,0.1-0.1,0.2-0.1,0.3c-0.4,1.1-0.9,2-1.3,2.7c-4-1.6-8.5-1.6-12.6,0
	C21.4,13,21,12.1,20.5,11c0-0.1,0-0.1-0.1-0.2c-0.1-0.2-0.2-0.4-0.2-0.7c0-0.1-0.1-0.2-0.1-0.4C20,9.6,20,9.4,19.9,9.2
	c0-0.2-0.1-0.3-0.1-0.5c0-0.1-0.1-0.3-0.1-0.4c0-0.2-0.1-0.4-0.1-0.6c0,0,0-0.1,0-0.1l-0.3-4C25,1.5,31.3,1.5,37.1,3.6z M17.7,53.2
	c-0.5,0.6-1.1,1-1.9,1c-0.8,0.1-1.5-0.2-2-0.7l-3.4-3c-1.1-1-1.2-2.6-0.3-3.7l10.8-13.2l2.1,2.7l3.9,5L17.7,53.2z M45.8,50.5l-3.4,3
	c-0.6,0.5-1.3,0.7-2,0.7c-0.8-0.1-1.4-0.4-1.9-1l-9.6-12.4l0,0l-7.2-9.3l0,0L14,21.4c-1.8-3.2,1-10.2,3.3-14.8c0.8,6,3.9,9.8,4.1,10
	c0,0,0,0,0,0l6,7.3v0l7.2,8.8c0,0,0,0,0,0l11.6,14.1C47,47.9,46.9,49.6,45.8,50.5z"/>
</svg>
