<?xml version="1.0" encoding="utf-8"?>
<!-- Generator: Adobe Illustrator 22.1.0, SVG Export Plug-In . SVG Version: 6.00 Build 0)  -->
<svg version="1.1" id="Capa_1" xmlns="http://www.w3.org/2000/svg" xmlns:xlink="http://www.w3.org/1999/xlink" x="0px" y="0px"
	 viewBox="0 0 464 464" style="enable-background:new 0 0 464 464;" xml:space="preserve">
<style type="text/css">
	.st0{fill:#93BF00;}
	.st1{fill:#F2BB80;}
	.st2{fill:#A8D32A;}
	.st3{fill:#7E5D40;}
</style>
<g>
	<path class="st0" d="M248,280h-16l0,0c0-44.2,35.8-80,80-80h16l0,0C328,244.2,292.2,280,248,280z"/>
	<path class="st0" d="M248,168h-16l0,0c0-44.2,35.8-80,80-80h16l0,0C328,132.2,292.2,168,248,168z"/>
	<path class="st0" d="M232,56h16c30.9,0,56-25.1,56-56h-16C257.1,0,232,25.1,232,56z"/>
</g>
<path class="st1" d="M136.5,302.1l-0.5-0.3l-56.1-62.3c-8.3-9.2-22.5-9.9-31.8-1.6c0,0-0.1,0.1-0.1,0.1V121.4
	c0.3-13.1-9.6-24.2-22.7-25.4C12.1,95.3,0.7,105.4,0,118.7c0,0.4,0,0.9,0,1.3v151.4c0,10.9,2.8,21.6,8.1,31.1L80,432v32h112v-66.2
	C192,358.3,170.8,321.7,136.5,302.1z"/>
<g>
	<path class="st2" d="M232,360c-4.4,0-8-3.6-8-8V48c0-4.4,3.6-8,8-8s8,3.6,8,8v304C240,356.4,236.4,360,232,360z"/>
	<path class="st2" d="M136,200h16c44.2,0,80,35.8,80,80l0,0h-16C171.8,280,136,244.2,136,200L136,200z"/>
	<path class="st2" d="M136,88h16c44.2,0,80,35.8,80,80l0,0h-16C171.8,168,136,132.2,136,88L136,88z"/>
	<path class="st2" d="M232,56h-16c-30.9,0-56-25.1-56-56h16C206.9,0,232,25.1,232,56z"/>
</g>
<path class="st3" d="M111.4,349.8c-2.3,0-4.4-0.9-5.9-2.6l-65.5-72.1c-11-12.1-10.5-30.6,1-42.1c3.2-3.1,8.2-3,11.3,0.2
	c3,3.1,3,8,0,11.1c-5.5,5.5-5.7,14.3-0.5,20.1l65.5,72.1c3,3.3,2.7,8.3-0.5,11.3C115.3,349.1,113.4,349.8,111.4,349.8L111.4,349.8z"
	/>
<path class="st1" d="M272,397.8V464h112v-32l71.9-129.5c5.3-9.5,8.1-20.2,8.1-31.1V121.4c0.3-13.1-9.6-24.2-22.7-25.4
	c-13.2-0.7-24.5,9.4-25.3,22.7c0,0.4,0,0.9,0,1.3v118c-9.2-8.4-23.4-7.8-31.8,1.4c0,0-0.1,0.1-0.1,0.1L328,301.8l-0.5,0.3
	C293.2,321.7,272,358.3,272,397.8L272,397.8z"/>
<path class="st3" d="M352.6,349.8c2.3,0,4.4-0.9,5.9-2.6l65.5-72.1c11-12.1,10.5-30.6-1-42.1c-3.2-3.1-8.2-3-11.3,0.2
	c-3,3.1-3,8,0,11.1c5.5,5.5,5.7,14.3,0.5,20.1l-65.5,72.1c-3,3.3-2.7,8.3,0.5,11.3C348.7,349.1,350.6,349.8,352.6,349.8L352.6,349.8
	z"/>
</svg>
